<svg xmlns="http://www.w3.org/2000/svg" width="24" height="24" viewBox="0 0 24 24">
    <g fill="none" fill-rule="evenodd">
        <circle cx="12" cy="12" r="12" fill="#FFC200"/>
        <path fill="#FFF" fill-rule="nonzero" d="M12.493 5.417A7.08 7.08 0 0 0 5.417 12.5a7.08 7.08 0 0 0 7.076 7.083 7.087 7.087 0 0 0 7.09-7.083 7.087 7.087 0 0 0-7.09-7.083zm.007 12.75A5.665 5.665 0 0 1 6.833 12.5 5.665 5.665 0 0 1 12.5 6.833a5.665 5.665 0 0 1 5.667 5.667 5.665 5.665 0 0 1-5.667 5.667z"/>
        <path d="M4 4h17v17H4z"/>
        <path fill="#FFF" fill-rule="nonzero" d="M12.854 8.958h-1.062v4.25l3.718 2.232.532-.872-3.188-1.89z"/>
    </g>
</svg>
